<svg width="24" height="24" viewBox="0 0 24 24" fill="none" xmlns="http://www.w3.org/2000/svg">
<path fill-rule="evenodd" clip-rule="evenodd" d="M16.1944 2H7.60165C4.24186 2 1.98218 4.38 1.98218 7.92V16.09C1.98218 19.62 4.24186 22 7.60165 22H16.1944C19.5542 22 21.804 19.62 21.804 16.09V7.92C21.804 4.38 19.5542 2 16.1944 2Z" fill="#CDCDD0"/>
<path fill-rule="evenodd" clip-rule="evenodd" d="M11.0255 8.18945C11.0255 8.67145 11.413 9.06445 11.8878 9.06445C12.3764 9.06445 12.7649 8.67145 12.7649 8.18945C12.7649 7.70745 12.3764 7.31445 11.8977 7.31445C11.417 7.31445 11.0255 7.70745 11.0255 8.18945ZM12.7549 11.3623C12.7549 10.8803 12.3654 10.4873 11.8877 10.4873C11.41 10.4873 11.0205 10.8803 11.0205 11.3623V15.7823C11.0205 16.2643 11.41 16.6573 11.8877 16.6573C12.3654 16.6573 12.7549 16.2643 12.7549 15.7823V11.3623Z" fill="#040415"/>
</svg>
