<svg width="26" height="26" viewBox="0 0 26 26" fill="none" xmlns="http://www.w3.org/2000/svg">
<path d="M4.01334 5.1157C2.43489 5.30538 1.5 6.83866 1.5 8.42847V18.2842C1.5 21.3171 4.18771 23.5417 7.22062 23.5417C9.46581 23.5417 13 24.0209 13 24.0209V21.1419C13 21.1419 10.0045 20.6667 8.20833 20.6667C5.95866 20.6667 3.91119 19.049 3.92768 16.7993L4.01334 5.1157Z" fill="url(#paint0_linear_1_2861)"/>
<path d="M18.8111 23.5424C21.835 23.5693 24.5 21.3338 24.5 18.3098V8.19979C24.5 6.73859 23.6625 5.33889 22.2118 5.16456L22.1344 16.6867C22.1187 19.0261 19.9747 20.6667 17.6353 20.6667C15.8391 20.6667 13 21.1419 13 21.1419V24.0209C13 24.0209 16.4167 23.5417 18.6619 23.5417C18.711 23.5417 18.7608 23.5419 18.8111 23.5424Z" fill="url(#paint1_linear_1_2861)"/>
<path d="M13 24.0209C13 24.0209 9.4658 23.5417 7.22062 23.5417V23.5417C4.18771 23.5417 1.5 21.3171 1.5 18.2842V8.42847C1.5 6.83866 2.43489 5.30538 4.01334 5.1157V5.1157M13 24.0209C13 24.0209 16.4167 23.5417 18.6619 23.5417C18.711 23.5417 18.7608 23.5419 18.8111 23.5424C21.835 23.5693 24.5 21.3338 24.5 18.3098V8.19979C24.5 6.73859 23.6625 5.33889 22.2118 5.16456V5.16456M13 24.0209V21.1419M13 21.1419C13 21.1419 10.0045 20.6667 8.20833 20.6667V20.6667C5.95866 20.6667 3.91119 19.049 3.92768 16.7993L4.01334 5.1157M13 21.1419C13 21.1419 15.8391 20.6667 17.6353 20.6667V20.6667C19.9747 20.6667 22.1187 19.0261 22.1344 16.6867L22.2118 5.16456M13 21.1419V2.45829M4.01334 5.1157V5.1157C4.01334 3.57904 5.11669 2.25283 6.64513 2.09412C7.28386 2.0278 7.94423 1.97913 8.50667 1.97913C10.2714 1.97913 13 2.45829 13 2.45829M22.2118 5.16456V5.16456C22.2118 3.60121 21.0857 2.25416 19.5304 2.09581C18.8706 2.02863 18.1871 1.97913 17.6059 1.97913C15.7975 1.97913 13 2.45829 13 2.45829" stroke="black" stroke-width="2" stroke-linecap="round" stroke-linejoin="round"/>
<defs>
<linearGradient id="paint0_linear_1_2861" x1="1.5" y1="1.97913" x2="23.5218" y2="24.9583" gradientUnits="userSpaceOnUse">
<stop stop-color="#C7EDFF"/>
<stop offset="0.705" stop-color="#E7F4FB"/>
<stop offset="1" stop-color="#FFDDE5"/>
</linearGradient>
<linearGradient id="paint1_linear_1_2861" x1="1.5" y1="1.97913" x2="23.5218" y2="24.9583" gradientUnits="userSpaceOnUse">
<stop stop-color="#C7EDFF"/>
<stop offset="0.705" stop-color="#E7F4FB"/>
<stop offset="1" stop-color="#FFDDE5"/>
</linearGradient>
</defs>
</svg>
