<svg width="24" height="24" viewBox="0 0 24 24" fill="none" xmlns="http://www.w3.org/2000/svg">
<path fill-rule="evenodd" clip-rule="evenodd" d="M8 1.25C8.41421 1.25 8.75 1.58579 8.75 2V5C8.75 5.41421 8.41421 5.75 8 5.75C7.58579 5.75 7.25 5.41421 7.25 5V2C7.25 1.58579 7.58579 1.25 8 1.25Z" fill="black"/>
<path fill-rule="evenodd" clip-rule="evenodd" d="M16 1.25C16.4142 1.25 16.75 1.58579 16.75 2V5C16.75 5.41421 16.4142 5.75 16 5.75C15.5858 5.75 15.25 5.41421 15.25 5V2C15.25 1.58579 15.5858 1.25 16 1.25Z" fill="black"/>
<path fill-rule="evenodd" clip-rule="evenodd" d="M6.25 11C6.25 10.5858 6.58579 10.25 7 10.25H15C15.4142 10.25 15.75 10.5858 15.75 11C15.75 11.4142 15.4142 11.75 15 11.75H7C6.58579 11.75 6.25 11.4142 6.25 11Z" fill="black"/>
<path fill-rule="evenodd" clip-rule="evenodd" d="M6.25 15C6.25 14.5858 6.58579 14.25 7 14.25H12C12.4142 14.25 12.75 14.5858 12.75 15C12.75 15.4142 12.4142 15.75 12 15.75H7C6.58579 15.75 6.25 15.4142 6.25 15Z" fill="black"/>
<path fill-rule="evenodd" clip-rule="evenodd" d="M7.95728 2.75122C7.9715 2.75041 7.98575 2.75 8 2.75H16C16.0135 2.75 16.027 2.75036 16.0405 2.75109C17.7683 2.84449 19.2706 3.22623 20.3065 4.37861C21.3291 5.51622 21.75 7.24345 21.75 9.65V16C21.75 16.4142 21.4142 16.75 21 16.75C20.5858 16.75 20.25 16.4142 20.25 16V9.65C20.25 7.35655 19.8359 6.09878 19.191 5.38139C18.562 4.68169 17.57 4.33837 15.9795 4.25H8.02167C6.43017 4.34331 5.43785 4.68654 4.80868 5.38551C4.16413 6.10158 3.75 7.35661 3.75 9.65V15.82C3.75 17.8692 4.01173 19.1632 4.69659 19.9694C5.35439 20.7438 6.57004 21.25 9 21.25H15C15.4142 21.25 15.75 21.5858 15.75 22C15.75 22.4142 15.4142 22.75 15 22.75H9C6.42996 22.75 4.64561 22.2262 3.55341 20.9406C2.48827 19.6868 2.25 17.8908 2.25 15.82V9.65C2.25 7.24339 2.67087 5.51842 3.69382 4.38198C4.72938 3.23153 6.23109 2.84971 7.95728 2.75122Z" fill="black"/>
<path fill-rule="evenodd" clip-rule="evenodd" d="M16.2803 17.2803C15.9706 17.5901 15.75 18.1156 15.75 19V20.1893L19.1893 16.75H18C17.1156 16.75 16.5901 16.9706 16.2803 17.2803ZM15.2197 16.2197C15.9099 15.5294 16.8844 15.25 18 15.25H21C21.3033 15.25 21.5768 15.4327 21.6929 15.713C21.809 15.9932 21.7448 16.3158 21.5303 16.5303L15.5303 22.5303C15.3158 22.7448 14.9932 22.809 14.713 22.6929C14.4327 22.5768 14.25 22.3033 14.25 22V19C14.25 17.8844 14.5294 16.9099 15.2197 16.2197Z" fill="black"/>
</svg>
