<svg width="13" height="12" viewBox="0 0 13 12" fill="none" xmlns="http://www.w3.org/2000/svg">
<path fill-rule="evenodd" clip-rule="evenodd" d="M7.24284 6.70834V11.257C7.24284 11.6673 6.91026 12 6.5 12C6.08974 12 5.75716 11.6673 5.75716 11.257V6.70834H1.22696C0.844275 6.6687 0.553467 6.34614 0.553467 5.96132C0.553467 5.5765 0.844275 5.25394 1.22696 5.21431H5.74917V0.673653C5.7888 0.290878 6.11128 0 6.49601 0C6.88074 0 7.20321 0.290878 7.24284 0.673653V5.21431H11.773C12.1557 5.25394 12.4465 5.5765 12.4465 5.96132C12.4465 6.34614 12.1557 6.6687 11.773 6.70834H7.24284Z" fill="#040415"/>
</svg>
