<svg width="24" height="24" viewBox="0 0 24 24" fill="none" xmlns="http://www.w3.org/2000/svg">
<path fill-rule="evenodd" clip-rule="evenodd" d="M12.6533 3.71101V12.189C12.6533 12.5812 12.3378 12.8995 11.9491 12.8995C11.5604 12.8995 11.2449 12.5812 11.2449 12.189V3.71101C11.2449 3.3188 11.5604 3.00049 11.9491 3.00049C12.3378 3.00049 12.6533 3.3188 12.6533 3.71101Z" fill="#E3524F"/>
<path fill-rule="evenodd" clip-rule="evenodd" d="M17.3489 12.189C17.3489 12.3217 17.3123 12.4524 17.2409 12.568L12.5454 20.0863C12.4158 20.2928 12.1914 20.4188 11.9491 20.4188C11.7069 20.4188 11.4825 20.2928 11.3529 20.0863L6.65734 12.568C6.5212 12.3491 6.51275 12.0725 6.63763 11.8461C6.76156 11.6187 6.99723 11.4785 7.25356 11.4785H16.6447C16.901 11.4785 17.1367 11.6187 17.2606 11.8461C17.3198 11.9531 17.3489 12.0716 17.3489 12.189Z" fill="#E3524F"/>
</svg>
