<svg width="24" height="24" viewBox="0 0 24 24" fill="none" xmlns="http://www.w3.org/2000/svg">
<path fill-rule="evenodd" clip-rule="evenodd" d="M11.3467 20.289L11.3467 11.811C11.3467 11.4188 11.6622 11.1005 12.0509 11.1005C12.4396 11.1005 12.7551 11.4188 12.7551 11.811L12.7551 20.289C12.7551 20.6812 12.4396 20.9995 12.0509 20.9995C11.6622 20.9995 11.3467 20.6812 11.3467 20.289Z" fill="#3BA935"/>
<path fill-rule="evenodd" clip-rule="evenodd" d="M6.6511 11.811C6.6511 11.6783 6.68772 11.5476 6.75908 11.432L11.4546 3.9137C11.5842 3.70717 11.8086 3.58117 12.0509 3.58117C12.2931 3.58117 12.5175 3.70717 12.6471 3.9137L17.3427 11.432C17.4788 11.6509 17.4873 11.9275 17.3624 12.1539C17.2384 12.3813 17.0028 12.5215 16.7464 12.5215L7.3553 12.5215C7.09897 12.5215 6.8633 12.3813 6.73936 12.1539C6.68021 12.0469 6.6511 11.9284 6.6511 11.811Z" fill="#3BA935"/>
</svg>
