<svg width="24" height="24" viewBox="0 0 24 24" fill="none" xmlns="http://www.w3.org/2000/svg">
<path fill-rule="evenodd" clip-rule="evenodd" d="M13.884 19.2285C13.3885 19.1217 10.3695 19.1217 9.87401 19.2285C9.45046 19.3272 8.99243 19.5568 8.99243 20.0604C9.01706 20.5408 9.29581 20.9648 9.68194 21.2337L9.68095 21.2347C10.1803 21.6275 10.7664 21.8773 11.3801 21.9669C11.7071 22.0122 12.04 22.0102 12.3789 21.9669C12.9916 21.8773 13.5776 21.6275 14.077 21.2347L14.076 21.2337C14.4622 20.9648 14.7409 20.5408 14.7655 20.0604C14.7655 19.5568 14.3075 19.3272 13.884 19.2285Z" fill="#CDCDD0"/>
<path fill-rule="evenodd" clip-rule="evenodd" d="M20.3173 11.6453L19.4614 8.37013L19 7.5C19 7.5 18.1671 5.67907 17.3554 4.62459C16.1045 2.98699 13.9985 2 11.9369 2H11.8492C9.83096 2 7.79101 2.94167 6.51839 4.5128C5.66242 5.58842 4.32478 7.5 4.32478 7.5L3.5 9L3 11.5C3 11.5 3 13.1258 3 14C3 14.8752 3.75348 15.6598 4.32478 16.3336C5.07043 17.1413 6.1234 17.6569 7.19903 17.7466C8.75632 17.9258 10.3136 17.9933 11.8936 17.9933C13.4725 17.9933 15.0298 17.8805 16.5881 17.7466C17.6627 17.6569 18.7157 17.1413 19.4614 16.3336C20.0317 15.6598 20.3173 14.8309 20.3173 13.9557C20.3173 13.0815 20.3173 12.5 20.3173 12.5" fill="#040415"/>
</svg>
