<svg width="24" height="24" viewBox="0 0 24 24" fill="none" xmlns="http://www.w3.org/2000/svg">
<path fill-rule="evenodd" clip-rule="evenodd" d="M20.4177 4.89844C21.2414 4.89844 21.9109 5.56214 21.9109 6.37867C21.9109 7.1963 21.2414 7.86 20.4177 7.86H13.9007C13.0759 7.86 12.4064 7.1963 12.4064 6.37867C12.4064 5.56214 13.0759 4.89844 13.9007 4.89844H20.4177ZM3.58344 15.9581H10.1004C10.9252 15.9581 11.5947 16.6218 11.5947 17.4394C11.5947 18.2559 10.9252 18.9207 10.1004 18.9207H3.58344C2.75864 18.9207 2.08911 18.2559 2.08911 17.4394C2.08911 16.6218 2.75864 15.9581 3.58344 15.9581Z" fill="#CDCDD0"/>
<path fill-rule="evenodd" clip-rule="evenodd" d="M5.49734 9.75821C7.3804 9.75821 8.90556 8.24523 8.90556 6.37856C8.90556 4.51298 7.3804 3 5.49734 3C3.61538 3 2.08911 4.51298 2.08911 6.37856C2.08911 8.24523 3.61538 9.75821 5.49734 9.75821ZM18.5027 20.7778C20.3857 20.7778 21.9109 19.2648 21.9109 17.3992C21.9109 15.5325 20.3857 14.0196 18.5027 14.0196C16.6207 14.0196 15.0944 15.5325 15.0944 17.3992C15.0944 19.2648 16.6207 20.7778 18.5027 20.7778Z" fill="#040415"/>
</svg>
