<svg width="29" height="25" viewBox="0 0 29 25" fill="none" xmlns="http://www.w3.org/2000/svg">
<path d="M14.5 23.5209C14.5 23.5209 10.9658 23.0417 8.72062 23.0417V23.0417C5.68771 23.0417 3 20.8171 3 17.7842V7.92847C3 6.33866 3.93489 4.80538 5.51334 4.6157V4.6157M14.5 23.5209C14.5 23.5209 17.9167 23.0417 20.1619 23.0417C20.211 23.0417 20.2608 23.0419 20.3111 23.0424C23.335 23.0693 26 20.8338 26 17.8098V7.69979C26 6.23859 25.1625 4.83889 23.7118 4.66456V4.66456M14.5 23.5209V20.6419M14.5 20.6419C14.5 20.6419 11.5045 20.1667 9.70833 20.1667V20.1667C7.45866 20.1667 5.41119 18.549 5.42768 16.2993L5.51334 4.6157M14.5 20.6419C14.5 20.6419 17.3391 20.1667 19.1353 20.1667V20.1667C21.4747 20.1667 23.6187 18.5261 23.6344 16.1867L23.7118 4.66456M14.5 20.6419V1.95829M5.51334 4.6157V4.6157C5.51334 3.07904 6.61669 1.75283 8.14513 1.59412C8.78386 1.5278 9.44423 1.47913 10.0067 1.47913C11.7714 1.47913 14.5 1.95829 14.5 1.95829M23.7118 4.66456V4.66456C23.7118 3.10121 22.5857 1.75416 21.0304 1.59581C20.3706 1.52863 19.6871 1.47913 19.1059 1.47913C17.2975 1.47913 14.5 1.95829 14.5 1.95829" stroke="#999AA0" stroke-width="2" stroke-linecap="round" stroke-linejoin="round"/>
</svg>
