<?xml version="1.0" standalone="no"?>
<!DOCTYPE svg PUBLIC "-//W3C//DTD SVG 20010904//EN"
 "http://www.w3.org/TR/2001/REC-SVG-20010904/DTD/svg10.dtd">
<svg version="1.0" xmlns="http://www.w3.org/2000/svg"
 width="104.000000pt" height="100.000000pt" viewBox="0 0 104.000000 100.000000"
 preserveAspectRatio="xMidYMid meet">

<g transform="translate(0.000000,100.000000) scale(0.100000,-0.100000)"
fill="#000000" stroke="none">
<path d="M535 710 l-251 -250 -37 -120 c-39 -124 -43 -145 -29 -154 5 -3 67
13 138 35 l129 41 243 241 c265 264 276 280 253 356 -6 22 -27 53 -46 70 -31
27 -43 31 -92 31 l-57 0 -251 -250z m344 199 c18 -6 38 -24 46 -40 16 -31 20
-75 7 -83 -5 -3 -37 24 -72 59 -63 63 -63 65 -19 74 3 0 20 -4 38 -10z m-49
-104 l65 -65 -210 -210 -210 -210 -62 62 c-35 34 -63 67 -63 73 0 10 400 415
410 415 3 0 35 -29 70 -65z m-452 -458 l53 -54 -76 -22 c-42 -13 -78 -21 -80
-19 -5 5 39 148 45 148 3 0 29 -24 58 -53z"/>
<path d="M89 841 l-29 -29 0 -362 0 -361 25 -24 24 -25 369 0 369 0 24 26 c24
25 24 29 27 241 4 237 1 263 -28 263 -19 0 -20 -7 -20 -228 0 -209 -2 -230
-18 -245 -17 -15 -56 -17 -353 -17 -252 0 -339 3 -352 13 -16 11 -17 42 -15
367 l3 355 237 5 c130 3 240 8 243 12 4 4 5 14 2 23 -6 13 -39 15 -242 15
l-237 0 -29 -29z"/>
</g>
</svg>
