<svg width="62" height="62" viewBox="0 0 62 62" fill="none" xmlns="http://www.w3.org/2000/svg">
<path d="M3.16675 31.0002C3.16675 32.1047 4.06218 33.0002 5.16675 33.0002C6.27132 33.0002 7.16675 32.1047 7.16675 31.0002H3.16675ZM58.8334 31.0002C58.8334 29.8956 57.938 29.0002 56.8334 29.0002C55.7288 29.0002 54.8334 29.8956 54.8334 31.0002H58.8334ZM12.8871 46.4911C12.1688 45.6521 10.9062 45.5542 10.0671 46.2725C9.22806 46.9909 9.13019 48.2534 9.84853 49.0925L12.8871 46.4911ZM49.1131 15.5092C49.8314 16.3483 51.094 16.4461 51.933 15.7278C52.7721 15.0094 52.87 13.7469 52.1516 12.9078L49.1131 15.5092ZM55.3614 2.57457C55.3565 1.47001 54.4571 0.578588 53.3525 0.583516C52.248 0.588444 51.3565 1.48786 51.3615 2.59242L55.3614 2.57457ZM53.3843 7.71325L55.3843 7.70433V7.70433L53.3843 7.71325ZM43.8777 17.2199L43.8687 19.2199L43.8777 17.2199ZM38.7568 15.1971C37.6523 15.1921 36.7528 16.0836 36.7479 17.1881C36.743 18.2927 37.6344 19.1921 38.739 19.197L38.7568 15.1971ZM52.3289 15.2487L53.9106 16.4728V16.4728L52.3289 15.2487ZM51.4131 16.1645L52.6372 17.7462L52.6372 17.7462L51.4131 16.1645ZM6.42653 59.218C6.43146 60.3226 7.33088 61.214 8.43543 61.2091C9.53999 61.2041 10.4314 60.3047 10.4265 59.2002L6.42653 59.218ZM8.40363 54.0793L6.40364 54.0883L8.40363 54.0793ZM17.9103 44.5727L17.9192 42.5727H17.9192L17.9103 44.5727ZM23.0311 46.5955C24.1357 46.6005 25.0351 45.709 25.04 44.6045C25.045 43.4999 24.1535 42.6005 23.049 42.5956L23.0311 46.5955ZM9.45904 46.5439L7.87737 45.3198H7.87737L9.45904 46.5439ZM10.3748 45.6281L9.15077 44.0464H9.15077L10.3748 45.6281ZM31.0001 3.16683C15.6282 3.16683 3.16675 15.6282 3.16675 31.0002H7.16675C7.16675 17.8374 17.8373 7.16683 31.0001 7.16683V3.16683ZM31.0001 58.8335C46.372 58.8335 58.8334 46.3721 58.8334 31.0002H54.8334C54.8334 44.163 44.1629 54.8335 31.0001 54.8335V58.8335ZM9.84853 49.0925C14.9503 55.0518 22.5346 58.8335 31.0001 58.8335V54.8335C23.7521 54.8335 17.2614 51.6006 12.8871 46.4911L9.84853 49.0925ZM52.1516 12.9078C47.0498 6.94858 39.4655 3.16683 31.0001 3.16683V7.16683C38.248 7.16683 44.7388 10.3997 49.1131 15.5092L52.1516 12.9078ZM51.3615 2.59242L51.3843 7.72218L55.3843 7.70433L55.3614 2.57457L51.3615 2.59242ZM43.8866 15.2199L38.7568 15.1971L38.739 19.197L43.8687 19.2199L43.8866 15.2199ZM51.3843 7.72218C51.3937 9.81465 51.3969 11.215 51.2813 12.2733C51.1702 13.2913 50.9702 13.7365 50.7472 14.0247L53.9106 16.4728C54.7704 15.3618 55.1073 14.0847 55.2577 12.7075C55.4037 11.3706 55.3932 9.70274 55.3843 7.70433L51.3843 7.72218ZM43.8687 19.2199C45.8671 19.2288 47.535 19.2393 48.8719 19.0933C50.2491 18.9429 51.5262 18.606 52.6372 17.7462L50.1891 14.5828C49.9009 14.8058 49.4557 15.0058 48.4377 15.1169C47.3794 15.2325 45.979 15.2293 43.8866 15.2199L43.8687 19.2199ZM50.7472 14.0247C50.5855 14.2336 50.398 14.4211 50.1891 14.5828L52.6372 17.7462C53.1138 17.3773 53.5417 16.9494 53.9106 16.4728L50.7472 14.0247ZM10.4265 59.2002L10.4036 54.0704L6.40364 54.0883L6.42653 59.218L10.4265 59.2002ZM17.9014 46.5727L23.0311 46.5955L23.049 42.5956L17.9192 42.5727L17.9014 46.5727ZM10.4036 54.0704C10.3943 51.9779 10.3911 50.5776 10.5066 49.5193C10.6178 48.5013 10.8177 48.0561 11.0407 47.7679L7.87737 45.3198C7.01758 46.4308 6.68066 47.7079 6.53026 49.0851C6.38426 50.422 6.39473 52.0899 6.40364 54.0883L10.4036 54.0704ZM17.9192 42.5727C15.9208 42.5638 14.253 42.5533 12.916 42.6993C11.5389 42.8497 10.2618 43.1866 9.15077 44.0464L11.5989 47.2098C11.887 46.9868 12.3322 46.7868 13.3503 46.6757C14.4086 46.5601 15.8089 46.5633 17.9014 46.5727L17.9192 42.5727ZM11.0407 47.7679C11.2024 47.559 11.3899 47.3715 11.5989 47.2098L9.15077 44.0464C8.6741 44.4153 8.24626 44.8431 7.87737 45.3198L11.0407 47.7679Z" fill="white"/>
</svg>
