<svg width="21" height="20" viewBox="0 0 21 20" fill="none" xmlns="http://www.w3.org/2000/svg">
<path fill-rule="evenodd" clip-rule="evenodd" d="M6.58008 5.37163C6.58008 3.32913 8.29657 1.66663 10.4063 1.66663H14.5999C16.7044 1.66663 18.4166 3.32496 18.4166 5.36329V14.6266C18.4166 16.67 16.701 18.3333 14.5913 18.3333H10.3977C8.29313 18.3333 6.58008 16.6741 6.58008 14.635V13.8516V5.37163Z" fill="#CDCDD0"/>
<path fill-rule="evenodd" clip-rule="evenodd" d="M13.8644 9.54481L11.3912 7.12064C11.1355 6.87064 10.7242 6.87064 10.4694 7.12231C10.2155 7.37398 10.2163 7.77981 10.4711 8.02981L11.8254 9.35731H3.235C2.87527 9.35731 2.58325 9.64481 2.58325 9.99981C2.58325 10.354 2.87527 10.6406 3.235 10.6406H11.8254L10.4711 11.969C10.2163 12.219 10.2155 12.6248 10.4694 12.8765C10.5972 13.0023 10.764 13.0656 10.9316 13.0656C11.0974 13.0656 11.2642 13.0023 11.3912 12.8781L13.8644 10.454C13.9871 10.3331 14.0566 10.1698 14.0566 9.99981C14.0566 9.82898 13.9871 9.66564 13.8644 9.54481Z" fill="#040415"/>
</svg>
