<svg width="24" height="24" viewBox="0 0 24 24" fill="none" xmlns="http://www.w3.org/2000/svg">
<path fill-rule="evenodd" clip-rule="evenodd" d="M7.30307 9.84822C8.53872 8.70072 10.1883 8 12 8C13.8117 8 15.4613 8.70072 16.6969 9.84822L19.7405 4.21828C20.2808 3.21872 19.5638 2 18.4353 2H15.1486C14.4287 2 13.7654 2.39378 13.4158 3.02871L12 5.60016L10.5841 3.02871C10.2345 2.39378 9.57125 2 8.85139 2H5.56466C4.43622 2 3.71919 3.21872 4.25955 4.21828L7.30307 9.84822Z" fill="#FEA800"/>
<path d="M18.9377 15C18.9377 18.866 15.8317 22 12.0001 22C8.16858 22 5.0625 18.866 5.0625 15C5.0625 11.134 8.16858 8 12.0001 8C15.8317 8 18.9377 11.134 18.9377 15Z" fill="#FFE6B6"/>
<path fill-rule="evenodd" clip-rule="evenodd" d="M12 17C13.0947 17 13.9822 16.1046 13.9822 15C13.9822 13.8954 13.0947 13 12 13C10.9053 13 10.0178 13.8954 10.0178 15C10.0178 16.1046 10.9053 17 12 17Z" fill="#FEA800"/>
</svg>
