<svg width="24" height="24" viewBox="0 0 24 24" fill="none" xmlns="http://www.w3.org/2000/svg">
<path fill-rule="evenodd" clip-rule="evenodd" d="M13.9909 19.2283C13.4954 19.1215 10.4764 19.1215 9.98095 19.2283C9.55739 19.327 9.09937 19.5566 9.09937 20.0602C9.12399 20.5406 9.40275 20.9646 9.78887 21.2335L9.78788 21.2345C10.2873 21.6273 10.8734 21.877 11.487 21.9667C11.814 22.012 12.147 22.01 12.4858 21.9667C13.0985 21.877 13.6846 21.6273 14.184 21.2345L14.183 21.2335C14.5691 20.9646 14.8479 20.5406 14.8725 20.0602C14.8725 19.5566 14.4145 19.327 13.9909 19.2283Z" fill="#040415"/>
<path fill-rule="evenodd" clip-rule="evenodd" d="M19.7002 11.6453C18.9762 10.7923 18.6472 10.0531 18.6472 8.79716V8.37013C18.6472 6.73354 18.2739 5.67907 17.4623 4.62459C16.2113 2.98699 14.1054 2 12.0438 2H11.9561C9.93783 2 7.89789 2.94167 6.62526 4.5128C5.76929 5.58842 5.35263 6.68822 5.35263 8.37013V8.79716C5.35263 10.0531 5.04531 10.7923 4.29966 11.6453C3.75101 12.2738 3.57568 13.0815 3.57568 13.9557C3.57568 14.8309 3.86035 15.6598 4.43165 16.3336C5.1773 17.1413 6.23027 17.6569 7.3059 17.7466C8.86319 17.9258 10.4205 17.9933 12.0004 17.9933C13.5794 17.9933 15.1367 17.8805 16.695 17.7466C17.7696 17.6569 18.8226 17.1413 19.5682 16.3336C20.1385 15.6598 20.4242 14.8309 20.4242 13.9557C20.4242 13.0815 20.2489 12.2738 19.7002 11.6453Z" fill="#CDCDD0"/>
</svg>
