<svg width="18" height="19" viewBox="0 0 18 19" fill="none" xmlns="http://www.w3.org/2000/svg">
<path fill-rule="evenodd" clip-rule="evenodd" d="M8.81499 11.453C10.3996 11.3797 11.9589 11.871 13.2153 12.8395C14.4716 13.808 15.3436 15.1908 15.676 16.7419H1.95299C2.28537 15.1908 3.15734 13.808 4.41371 12.8395C5.67008 11.871 7.22933 11.3797 8.81398 11.453M5.28798 6.16394C5.28798 5.46656 5.49477 4.78493 5.88222 4.20508C6.26966 3.62523 6.82035 3.17325 7.46464 2.90637C8.10894 2.6395 8.8179 2.56976 9.50188 2.70581C10.1859 2.84186 10.8141 3.17766 11.3072 3.67078C11.8004 4.1639 12.1362 4.7921 12.2722 5.47607C12.4083 6.16005 12.3385 6.86901 12.0716 7.51331C11.8047 8.1576 11.3528 8.70826 10.7729 9.0957C10.1931 9.48314 9.51136 9.68994 8.81398 9.68994C7.87907 9.68915 6.98269 9.31745 6.32161 8.65637C5.66053 7.99529 5.28877 7.09885 5.28798 6.16394ZM12.126 10.283C12.9797 9.59714 13.5994 8.66328 13.8997 7.61023C14.2 6.55718 14.1661 5.43686 13.8025 4.40393C13.439 3.371 12.7638 2.47637 11.8702 1.84351C10.9766 1.21064 9.90853 0.87085 8.81349 0.87085C7.71846 0.87085 6.65043 1.21064 5.75679 1.84351C4.86315 2.47637 4.18797 3.371 3.82445 4.40393C3.46092 5.43686 3.42695 6.55718 3.72725 7.61023C4.02755 8.66328 4.64732 9.59714 5.50099 10.283C3.83928 10.9054 2.41472 12.0336 1.42802 13.5084C0.441326 14.9833 -0.0577753 16.7305 0.00099109 18.504H17.63C17.6888 16.7305 17.1896 14.9833 16.2029 13.5084C15.2162 12.0336 13.7917 10.9054 12.13 10.283" fill="#CCBEB4"/>
</svg>
