<svg width="24" height="24" viewBox="0 0 24 24" fill="none" xmlns="http://www.w3.org/2000/svg">
<path fill-rule="evenodd" clip-rule="evenodd" d="M12.8607 3.11361L15.0673 7.58789C15.2299 7.91205 15.5402 8.13717 15.898 8.18719L20.8545 8.91556C21.144 8.95658 21.4067 9.11066 21.5841 9.34578C21.7596 9.5779 21.8349 9.87205 21.7923 10.1612C21.7576 10.4013 21.6456 10.6234 21.4741 10.7935L17.8826 14.3063C17.6199 14.5514 17.501 14.9146 17.5644 15.2698L18.4486 20.2083C18.5428 20.8046 18.1513 21.3669 17.5644 21.48C17.3225 21.519 17.0747 21.478 16.8566 21.3659L12.4354 19.0417C12.1073 18.8746 11.7197 18.8746 11.3916 19.0417L6.97036 21.3659C6.42712 21.657 5.75403 21.4589 5.45168 20.9187C5.33966 20.7036 5.30001 20.4584 5.33669 20.2193L6.22093 15.2798C6.28437 14.9256 6.16443 14.5604 5.90272 14.3153L2.31124 10.8045C1.88398 10.3883 1.8711 9.70296 2.28249 9.27175C2.29141 9.26274 2.30132 9.25274 2.31124 9.24273C2.48174 9.06764 2.70577 8.95658 2.94765 8.92757L7.90416 8.1982C8.26103 8.14717 8.57131 7.92406 8.73487 7.59789L10.8622 3.11361C11.0515 2.72942 11.4441 2.4903 11.8704 2.5003H12.0032C12.373 2.54533 12.6951 2.77644 12.8607 3.11361Z" fill="#040415"/>
</svg>
