<svg width="24" height="24" viewBox="0 0 24 24" fill="none" xmlns="http://www.w3.org/2000/svg">
<path fill-rule="evenodd" clip-rule="evenodd" d="M11.8843 18.6217L5.45044 21.8643C4.96457 22.1304 4.35849 21.9527 4.08674 21.4645C4.00737 21.311 3.9654 21.1404 3.96436 20.967V13.709C3.96436 14.4286 4.36647 14.8728 5.42422 15.3702L11.8843 18.6217Z" fill="#CDCDD0"/>
<path fill-rule="evenodd" clip-rule="evenodd" d="M8.81599 2H14.9352C17.6189 2 19.7956 3.06605 19.8218 5.79337V20.9668C19.8207 21.1374 19.7787 21.3051 19.6994 21.4554C19.572 21.7007 19.3519 21.8827 19.0898 21.9598C18.8277 22.0368 18.546 22.0023 18.3095 21.8641L11.8843 18.6215L5.42422 15.3701C4.36647 14.8726 3.96436 14.4284 3.96436 13.7088V5.79337C3.96436 3.06605 6.14104 2 8.81599 2ZM8.15163 9.62227H15.6083C16.038 9.62227 16.3863 9.26828 16.3863 8.83162C16.3863 8.39495 16.038 8.04096 15.6083 8.04096H8.15163C7.72194 8.04096 7.37361 8.39495 7.37361 8.83162C7.37361 9.26828 7.72194 9.62227 8.15163 9.62227Z" fill="#040415"/>
</svg>
